# Made in Blockbench 5.1.4
mtllib materials.mtl

o cylinder
v -1.2721305490496586e-18 0.09375 -1.2721305490496586e-18
v -1.2721305490496586e-18 0.78125 -1.2721305490496586e-18
v 0.09210753489819842 0.09375 0.34375
v 0.09210753489819842 0.78125 0.34375
v 0.2516424651018016 0.09375 0.2516424651018016
v 0.2516424651018016 0.78125 0.2516424651018016
v 0.34375 0.09375 0.09210753489819842
v 0.34375 0.78125 0.09210753489819842
v 0.34375 0.09375 -0.09210753489819845
v 0.34375 0.78125 -0.09210753489819845
v 0.2516424651018016 0.09375 -0.2516424651018016
v 0.2516424651018016 0.78125 -0.2516424651018016
v 0.09210753489819852 0.09375 -0.3437499999999999
v 0.09210753489819852 0.78125 -0.3437499999999999
v -0.09210753489819827 0.09375 -0.34375
v -0.09210753489819827 0.78125 -0.34375
v -0.2516424651018016 0.09375 -0.2516424651018017
v -0.2516424651018016 0.78125 -0.2516424651018017
v -0.3437499999999999 0.09375 -0.09210753489819838
v -0.3437499999999999 0.78125 -0.09210753489819838
v -0.34375 0.09375 0.09210753489819827
v -0.34375 0.78125 0.09210753489819827
v -0.2516424651018017 0.09375 0.2516424651018015
v -0.2516424651018017 0.78125 0.2516424651018015
v -0.09210753489819841 0.09375 0.34375
v -0.09210753489819841 0.78125 0.34375
vt 0.046875 0.984375
vt 0.015625 0.984375
vt 0.015625 0.953125
vt 0.109375 0.984375
vt 0.078125 0.984375
vt 0.078125 0.953125
vt 0.109375 0.953125
vt 0.171875 0.984375
vt 0.140625 0.984375
vt 0.140625 0.953125
vt 0.234375 0.984375
vt 0.203125 0.984375
vt 0.203125 0.953125
vt 0.296875 0.984375
vt 0.265625 0.984375
vt 0.265625 0.953125
vt 0.296875 0.953125
vt 0.359375 0.984375
vt 0.328125 0.984375
vt 0.328125 0.953125
vt 0.421875 0.984375
vt 0.390625 0.984375
vt 0.390625 0.953125
vt 0.484375 0.984375
vt 0.453125 0.984375
vt 0.453125 0.953125
vt 0.484375 0.953125
vt 0.546875 0.984375
vt 0.515625 0.984375
vt 0.515625 0.953125
vt 0.609375 0.984375
vt 0.578125 0.984375
vt 0.578125 0.953125
vt 0.671875 0.984375
vt 0.640625 0.984375
vt 0.640625 0.953125
vt 0.671875 0.953125
vt 0.734375 0.984375
vt 0.703125 0.984375
vt 0.703125 0.953125
vt 0.796875 0.984375
vt 0.765625 0.984375
vt 0.765625 0.953125
vt 0.859375 0.984375
vt 0.828125 0.984375
vt 0.828125 0.953125
vt 0.859375 0.953125
vt 0.921875 0.984375
vt 0.890625 0.984375
vt 0.890625 0.953125
vt 0.984375 0.984375
vt 0.953125 0.984375
vt 0.953125 0.953125
vt 0.046875 0.921875
vt 0.015625 0.921875
vt 0.015625 0.890625
vt 0.046875 0.890625
vt 0.109375 0.921875
vt 0.078125 0.921875
vt 0.078125 0.890625
vt 0.171875 0.921875
vt 0.140625 0.921875
vt 0.140625 0.890625
vt 0.234375 0.921875
vt 0.203125 0.921875
vt 0.203125 0.890625
vt 0.234375 0.890625
vt 0.296875 0.921875
vt 0.265625 0.921875
vt 0.265625 0.890625
vt 0.359375 0.921875
vt 0.328125 0.921875
vt 0.328125 0.890625
vt 0.421875 0.921875
vt 0.390625 0.921875
vt 0.390625 0.890625
vt 0.421875 0.890625
vt 0.484375 0.921875
vt 0.453125 0.921875
vt 0.453125 0.890625
vt 0.546875 0.921875
vt 0.515625 0.921875
vt 0.515625 0.890625
vt 0.609375 0.921875
vt 0.578125 0.921875
vt 0.578125 0.890625
vt 0.609375 0.890625
vt 0.671875 0.921875
vt 0.640625 0.921875
vt 0.640625 0.890625
vt 0.734375 0.921875
vt 0.703125 0.921875
vt 0.703125 0.890625
vt 0.796875 0.921875
vt 0.765625 0.921875
vt 0.765625 0.890625
vt 0.796875 0.890625
vt 0.859375 0.921875
vt 0.828125 0.921875
vt 0.828125 0.890625
vt 0.921875 0.921875
vt 0.890625 0.921875
vt 0.890625 0.890625
vt 0.984375 0.921875
vt 0.953125 0.921875
vt 0.953125 0.890625
vt 0.984375 0.890625
vt 0.046875 0.859375
vt 0.015625 0.859375
vt 0.015625 0.828125
vt 0.109375 0.859375
vt 0.078125 0.859375
vt 0.078125 0.828125
vt 0.171875 0.859375
vt 0.140625 0.859375
vt 0.140625 0.828125
vt 0.171875 0.828125
vt 0.234375 0.859375
vt 0.203125 0.859375
vt 0.203125 0.828125
vn 0 -1 0
vn 0.4999999999999999 0 0.8660254037844389
vn 0 1 0
vn 0 -1 0
vn 0.8660254037844389 0 0.4999999999999999
vn 0 1 0
vn 0 -1 0
vn 1 0 0
vn 0 1 0
vn 0 -1 0
vn 0.8660254037844389 0 -0.4999999999999999
vn 0 1 0
vn 0 -1 0
vn 0.49999999999999956 0 -0.8660254037844392
vn 0 1 0
vn 0 -1 0
vn 6.026776342740187e-16 0 -1
vn 0 1 0
vn 0 -1 0
vn -0.499999999999999 0 -0.8660254037844394
vn 0 1 0
vn 0 -1 0
vn -0.8660254037844394 0 -0.499999999999999
vn 0 1 0
vn 0 -1 0
vn -1 0 -6.026776342740192e-16
vn 0 1 0
vn 0 -1 0
vn -0.8660254037844393 0 0.49999999999999933
vn 0 1 0
vn 0 -1 0
vn -0.4999999999999999 0 0.8660254037844388
vn 0 1 0
vn 0 -1 0
vn 0 0 1
vn 0 1 0
usemtl m_cecad003-2ed1-ce26-dd0a-ac722d401ae1
f 5/1/1 3/2/1 1/3/1
f 3/4/2 5/5/2 6/6/2 4/7/2
f 4/8/3 6/9/3 2/10/3
f 7/11/4 5/12/4 1/13/4
f 5/14/5 7/15/5 8/16/5 6/17/5
f 6/18/6 8/19/6 2/20/6
f 9/21/7 7/22/7 1/23/7
f 7/24/8 9/25/8 10/26/8 8/27/8
f 8/28/9 10/29/9 2/30/9
f 11/31/10 9/32/10 1/33/10
f 9/34/11 11/35/11 12/36/11 10/37/11
f 10/38/12 12/39/12 2/40/12
f 13/41/13 11/42/13 1/43/13
f 11/44/14 13/45/14 14/46/14 12/47/14
f 12/48/15 14/49/15 2/50/15
f 15/51/16 13/52/16 1/53/16
f 13/54/17 15/55/17 16/56/17 14/57/17
f 14/58/18 16/59/18 2/60/18
f 17/61/19 15/62/19 1/63/19
f 15/64/20 17/65/20 18/66/20 16/67/20
f 16/68/21 18/69/21 2/70/21
f 19/71/22 17/72/22 1/73/22
f 17/74/23 19/75/23 20/76/23 18/77/23
f 18/78/24 20/79/24 2/80/24
f 21/81/25 19/82/25 1/83/25
f 19/84/26 21/85/26 22/86/26 20/87/26
f 20/88/27 22/89/27 2/90/27
f 23/91/28 21/92/28 1/93/28
f 21/94/29 23/95/29 24/96/29 22/97/29
f 22/98/30 24/99/30 2/100/30
f 25/101/31 23/102/31 1/103/31
f 23/104/32 25/105/32 26/106/32 24/107/32
f 24/108/33 26/109/33 2/110/33
f 3/111/34 25/112/34 1/113/34
f 25/114/35 3/115/35 4/116/35 26/117/35
f 26/118/36 4/119/36 2/120/36
o circle
v 0.06698729810778066 1 0.25
v 0.1830127018922193 1 0.18301270189221933
v 0.25 1 0.06698729810778066
v 0.25 1 -0.06698729810778069
v 0.1830127018922193 1 -0.18301270189221933
v 0.06698729810778073 1 -0.24999999999999994
v -0.06698729810778055 1 -0.25
v -0.1830127018922193 1 -0.18301270189221944
v -0.24999999999999992 1 -0.06698729810778063
v -0.25 1 0.06698729810778055
v -0.18301270189221935 1 0.1830127018922193
v -0.06698729810778066 1 0.25
v 0 0 0
v 0.13397459621556132 0 0.49999999999999994
v 0.36602540378443865 0 0.36602540378443865
v 0.36602540378443865 1 0.36602540378443865
v 0.49999999999999994 0 0.13397459621556132
v 0.49999999999999994 0 -0.13397459621556138
v 0.36602540378443865 0 -0.3660254037844386
v 0.1339745962155615 0 -0.4999999999999999
v -0.13397459621556113 0 -0.5
v -0.3660254037844386 0 -0.3660254037844387
v -0.49999999999999994 0 -0.13397459621556126
v -0.5 0 0.1339745962155611
v -0.3660254037844387 0 0.36602540378443854
v -0.1339745962155613 0 0.49999999999999994
v -0.5 0.625 0.1339745962155611
v -0.49999999999999994 0.625 -0.13397459621556126
v -0.3660254037844387 0.625 0.36602540378443854
v -0.49999999999999994 0.375 -0.13397459621556126
v -0.5 0.375 0.1339745962155611
v -0.3660254037844387 0.375 0.36602540378443854
v -0.43301270189221935 0.375 0.24999999999999983
v -0.43301270189221935 0 0.24999999999999983
v -0.43301270189221935 0.625 0.24999999999999983
v -0.5 0.375 -8.326672684688674e-17
v -0.5 0 -8.326672684688674e-17
v -0.5 0.625 -8.326672684688674e-17
v -0.875 0.5625 0.06249999999999992
v -0.7577722283113839 0.5625 0.37499999999999967
v -0.7577722283113839 0.8125 0.37499999999999967
v -0.875 0.8125 0.06249999999999992
v 0.13397459621556132 1 0.49999999999999994
v 0.49999999999999994 1 0.13397459621556132
v 0.49999999999999994 1 -0.13397459621556138
v 0.36602540378443865 1 -0.3660254037844386
v 0.1339745962155615 1 -0.4999999999999999
v -0.13397459621556113 1 -0.5
v -0.3660254037844386 1 -0.3660254037844387
v -0.49999999999999994 1 -0.13397459621556126
v -0.5 1 0.1339745962155611
v -0.3660254037844387 1 0.36602540378443854
v -0.1339745962155613 1 0.49999999999999994
v -0.43301270189221935 1 0.24999999999999983
v -0.5 1 -8.326672684688674e-17
v 0.6573523806378151 0.5 -0.004259271713866461
v 0.8988338372100821 0.75 -0.06896403298949665
v 0.834129075934452 0.75 -0.3104454895617637
v 0.35116616278991786 0.75 -0.18103596701050334
v 0.41587092406554804 0.75 0.06044548956176371
v 0.41587092406554804 0.25 0.06044548956176371
v 0.35116616278991786 0.25 -0.18103596701050334
v 0.834129075934452 0.25 -0.3104454895617637
v 0.8988338372100821 0.25 -0.06896403298949665
v 0.5926476193621849 0.5 -0.24574072828613353
v 0.625 0.5 -0.125
v 0.38351854342773295 0.75 -0.060295238724369815
v 0.38351854342773295 0.25 -0.060295238724369815
v 0.6573523806378151 0.625 -0.004259271713866461
v 0.625 0.625 -0.125
v 0.5926476193621849 0.625 -0.24574072828613353
v 0.834129075934452 0.625 -0.3104454895617637
v 0.8988338372100821 0.625 -0.06896403298949665
v 0.5042592717138664 0.75 -0.09264761936218491
v 0.4719068910760514 0.75 -0.21338834764831843
v 0.5366116523516815 0.75 0.028093108923948618
v 0.625 0.375 -0.125
v 0.5926476193621849 0.375 -0.24574072828613353
v 0.834129075934452 0.375 -0.3104454895617637
v 0.8988338372100821 0.375 -0.06896403298949665
v 0.6573523806378151 0.375 -0.004259271713866461
v 0.5042592717138664 0.25 -0.09264761936218491
v 0.4719068910760514 0.25 -0.21338834764831843
v 0.5366116523516815 0.25 0.028093108923948618
v 0.5366116523516815 0.875 0.028093108923948618
v 0.41587092406554804 0.875 0.06044548956176371
v 0.38351854342773295 0.875 -0.060295238724369815
v 0.35116616278991786 0.875 -0.18103596701050334
v 0.4719068910760514 0.875 -0.21338834764831843
v 0.7133883476483185 0.875 -0.2780931089239486
v 0.7780931089239487 0.875 -0.03661165235168155
v 0.7133883476483185 0.125 -0.2780931089239486
v 0.7780931089239487 0.125 -0.03661165235168155
v 0.6573523806378151 0.125 -0.004259271713866461
v 0.5366116523516815 0.125 0.028093108923948618
v 0.41587092406554804 0.125 0.06044548956176371
v 0.38351854342773295 0.125 -0.060295238724369815
v 0.35116616278991786 0.125 -0.18103596701050334
v 0.4719068910760514 0.125 -0.21338834764831843
v 0.5926476193621849 0.125 -0.24574072828613353
vt 0.21650625 0.96650625
vt 0.15849375 1
vt 0.125 0.875
vt 0.25 0.90849375
vt 0.21650625 0.96650625
vt 0.125 0.875
vt 0.25 0.84150625
vt 0.25 0.90849375
vt 0.125 0.875
vt 0.21650625 0.78349375
vt 0.25 0.84150625
vt 0.125 0.875
vt 0.15849375 0.75
vt 0.21650625 0.78349375
vt 0.125 0.875
vt 0.09150625 0.75
vt 0.15849375 0.75
vt 0.125 0.875
vt 0.03349375 0.78349375
vt 0.09150625 0.75
vt 0.125 0.875
vt 0 0.84150625
vt 0.03349375 0.78349375
vt 0.125 0.875
vt 0.125 0.875
vt 0 0.875
vt 0 0.84150625
vt 0.125 0.875
vt 0.016746874999999994 0.9375
vt 0 0.90849375
vt 0.09150625 1
vt 0.03349375 0.96650625
vt 0.125 0.875
vt 0.15849375 1
vt 0.09150625 1
vt 0.125 0.875
vt 0.59375 0.25
vt 0.62890625 0.25
vt 0.62890625 0.3125
vt 0.59375 0.3125
vt 0.001081249999999992 0.578125
vt 0.001081249999999992 0.328125
vt 0.06806875 0.328125
vt 0.06806875 0.578125
vt 0.13505625 0.328125
vt 0.13505625 0.578125
vt 0.06806875 0.578125
vt 0.06806875 0.328125
vt 0.13505625 0.578125
vt 0.13505625 0.328125
vt 0.20204375000000002 0.328125
vt 0.20204375000000002 0.578125
vt 0.52119375 0.75
vt 0.52119375 1
vt 0.45420625 1
vt 0.45420625 0.75
vt 0.52119375 1
vt 0.52119375 0.75
vt 0.58818125 0.75
vt 0.58818125 1
vt 0.58818125 1
vt 0.58818125 0.75
vt 0.6551687500000001 0.75
vt 0.6551687500000001 1
vt 0.45420625 0.578125
vt 0.45420625 0.328125
vt 0.52119375 0.328125
vt 0.52119375 0.578125
vt 0.52119375 0.578125
vt 0.52119375 0.328125
vt 0.58818125 0.328125
vt 0.58818125 0.578125
vt 0.58818125 0.578125
vt 0.58818125 0.328125
vt 0.6551687500000001 0.328125
vt 0.6551687500000001 0.578125
vt 0.359375 0.515625
vt 0.359375 0.265625
vt 0.42578125 0.265625
vt 0.42578125 0.515625
vt 0.03349375 0.96650625
vt 0.016746874999999994 0.9375
vt 0.125 0.875
vt 0 0.90849375
vt 0 0.875
vt 0.125 0.875
vt 0.6893857762510095 0.62109375
vt 0.7071863593255783 0.7182988704209584
vt 0.625 0.7327120671932763
vt 0.625 0.6267790749749309
vt 0.0546875 0.21367833291850602
vt 0.0546875 0.3125
vt 0 0.28285379399556154
vt 0 0.18403212691406767
vt 0.7370171875 0.48936718749999997
vt 0.755315625 0.59375
vt 0.671875 0.59375
vt 0.6726171875 0.49497187500000006
vt 0.7653231546300024 0.2734375
vt 0.79296875 0.328125
vt 0.6869957202717472 0.328125
vt 0.6593501249017497 0.2734375
vt 0.16015625 0.3125
vt 0.078125 0.3125
vt 0.078125 0.25
vt 0.16015625 0.25
vt 0.328125 0.671875
vt 0.328125 0.640625
vt 0.359375 0.640625
vt 0.359375 0.671875
vt 0.21875 0.28125
vt 0.21875 0.25
vt 0.25 0.25
vt 0.25 0.28125
vt 0.27396953125 0.2804609375
vt 0.30415390625 0.27237187500000004
vt 0.31224296875 0.3025578125
vt 0.28205703125 0.31064531250000005
vt 0.26588203125 0.250275
vt 0.29606640625 0.2421875
vt 0.30415390625 0.27237187500000004
vt 0.27396953125 0.2804609375
vt 0.296875 0.671875
vt 0.296875 0.640625
vt 0.328125 0.640625
vt 0.328125 0.671875
vt 0.1875 0.28125
vt 0.1875 0.25
vt 0.21875 0.25
vt 0.21875 0.28125
vt 0.25 0.28125
vt 0.25 0.3125
vt 0.21875 0.3125
vt 0.21875 0.28125
vt 0.21875 0.28125
vt 0.21875 0.3125
vt 0.1875 0.3125
vt 0.1875 0.28125
vt 0.390625 0.875
vt 0.390625 0.9375
vt 0.328125 0.9375
vt 0.328125 0.875
vt 0.75 0.625
vt 0.75 0.66919375
vt 0.71875 0.66919375
vt 0.71875 0.625
vt 0.75 0.66919375
vt 0.75 0.625
vt 0.78125 0.625
vt 0.78125 0.66919375
vt 0.296875 0.96875
vt 0.328125 0.9375
vt 0.390625 0.9375
vt 0.390625 0.96875
vt 0.671875 0.34375
vt 0.734375 0.34375
vt 0.734375 0.46875
vt 0.671875 0.46875
vt 0.46146953125 0.2742265625
vt 0.49165390625 0.28231562499999996
vt 0.48356640625 0.3125
vt 0.45338203125 0.3044125
vt 0.3125 0.359375
vt 0.3125 0.328125
vt 0.34375 0.328125
vt 0.34375 0.359375
vt 0.265625 0.84375
vt 0.265625 0.8125
vt 0.296875 0.8125
vt 0.296875 0.84375
vt 0.46955703125 0.24404218749999995
vt 0.49974296875 0.2521296875
vt 0.49165390625 0.28231562499999996
vt 0.46146953125 0.2742265625
vt 0.515625 0.3125
vt 0.515625 0.26830624999999997
vt 0.546875 0.26830624999999997
vt 0.546875 0.3125
vt 0.546875 0.3125
vt 0.546875 0.26830624999999997
vt 0.578125 0.26830624999999997
vt 0.578125 0.3125
vt 0.296875 0.96875
vt 0.296875 1
vt 0.265625 1
vt 0.265625 0.96875
vt 0.0625 0.59375
vt 0.0625 0.625
vt 0.03125 0.625
vt 0.03125 0.59375
vt 0.03125 0.59375
vt 0.03125 0.625
vt 0 0.625
vt 0 0.59375
vt 0.34375 0.484375
vt 0.34375 0.515625
vt 0.3125 0.515625
vt 0.3125 0.484375
vt 0.796875 0.796875
vt 0.734375 0.796875
vt 0.734375 0.75390625
vt 0.796875 0.75390625
vt 0.7497421875 0.982521875
vt 0.689371875 0.998696875
vt 0.681284375 0.9685125
vt 0.673196875 0.9383265625
vt 0.673196875 0.9383265625
vt 0.7335671875 0.92215
vt 0.7497421875 0.982521875
vt 0.390625 0.96875
vt 0.359375 1
vt 0.296875 1
vt 0.296875 0.96875
vt 0.796875 0.734375
vt 0.734375 0.734375
vt 0.734375 0.69140625
vt 0.796875 0.69140625
vt 0.689371875 0.805990625
vt 0.779928125 0.8302546875
vt 0.7637515625 0.890625
vt 0.29463125 0.53125
vt 0.311378125 0.59375
vt 0.282371875 0.6104968749999999
vt 0.23661875 0.56474375
vt 0.36161875 0.53125
vt 0.344871875 0.59375
vt 0.311378125 0.59375
vt 0.29463125 0.53125
vt 0.41963125 0.56474375
vt 0.373878125 0.6104968749999999
vt 0.344871875 0.59375
vt 0.36161875 0.53125
vt 0.453125 0.62275625
vt 0.390625 0.6395031250000001
vt 0.373878125 0.6104968749999999
vt 0.41963125 0.56474375
vt 0.453125 0.68974375
vt 0.390625 0.6729968749999999
vt 0.390625 0.6395031250000001
vt 0.453125 0.62275625
vt 0.41963125 0.74775625
vt 0.373878125 0.7020031250000001
vt 0.390625 0.6729968749999999
vt 0.453125 0.68974375
vt 0.36161875 0.78125
vt 0.344871875 0.71875
vt 0.373878125 0.7020031250000001
vt 0.41963125 0.74775625
vt 0.29463125 0.78125
vt 0.311378125 0.71875
vt 0.344871875 0.71875
vt 0.36161875 0.78125
vt 0.23661875 0.74775625
vt 0.282371875 0.7020031250000001
vt 0.311378125 0.71875
vt 0.29463125 0.78125
vt 0.203125 0.68974375
vt 0.265625 0.6729968749999999
vt 0.282371875 0.7020031250000001
vt 0.23661875 0.74775625
vt 0.265625 0.6395031250000001
vt 0.265625 0.6729968749999999
vt 0.203125 0.68974375
vt 0.282371875 0.6104968749999999
vt 0.265625 0.6395031250000001
vt 0.203125 0.62275625
vt 0.0013718749999999946 0.734375
vt 0.0013718749999999946 0.640625
vt 0.068359375 0.640625
vt 0.068359375 0.734375
vt 0.537109375 0.734375
vt 0.470121875 0.734375
vt 0.470121875 0.640625
vt 0.537109375 0.640625
vt 0.068359375 0.640625
vt 0.135346875 0.640625
vt 0.135346875 0.734375
vt 0.068359375 0.734375
vt 0.604096875 0.640625
vt 0.604096875 0.734375
vt 0.537109375 0.734375
vt 0.537109375 0.640625
vt 0.36328125 0.25
vt 0.328125 0.25
vt 0.328125 0.1875
vt 0.36328125 0.1875
vt 0.203125 0.68974375
vt 0.203125 0.65625
vt 0.203125 0.62275625
vt 0.265625 0.6395031250000001
vt 0.203125 0.62275625
vt 0.219871875 0.59375
vt 0.23661875 0.56474375
vt 0.282371875 0.6104968749999999
vt 0.21875 0.484375
vt 0.21875 0.453125
vt 0.28125 0.453125
vt 0.3125 0.484375
vt 0.3125 0.484375
vt 0.3125 0.515625
vt 0.25 0.515625
vt 0.21875 0.484375
vt 0.28125 0.453125
vt 0.21875 0.453125
vt 0.21875 0.390625
vt 0.28125 0.390625
vt 0.328125 0.875
vt 0.296875 0.84375
vt 0.390625 0.84375
vt 0.390625 0.875
vt 0.296875 0.84375
vt 0.296875 0.8125
vt 0.359375 0.8125
vt 0.390625 0.84375
vt 0.7637515625 0.890625
vt 0.673196875 0.8663609375
vt 0.681284375 0.836175
vt 0.689371875 0.805990625
vt 0.7637515625 0.9140625
vt 0.779928125 0.9744328125
vt 0.7497421875 0.982521875
vt 0.7335671875 0.92215
vt 0.3125 0.359375
vt 0.21875 0.359375
vt 0.25 0.328125
vt 0.3125 0.328125
vt 0.21875 0.390625
vt 0.21875 0.359375
vt 0.3125 0.359375
vt 0.28125 0.390625
vn 0 -1 0
vn 0 -1 0
vn 0 -1 0
vn 0 -1 0
vn 0 -1 0
vn 0 -1 0
vn 0 -1 0
vn 0 -1 0
vn 0 -1 0
vn 0 -1 0
vn 0 -1 0
vn 0 -1 0
vn -1 0 -4.1434087356338823e-16
vn -0.4999999999999999 0 0.8660254037844386
vn 0 0 1
vn 0.4999999999999998 0 0.8660254037844388
vn 0.8660254037844388 0 0.4999999999999998
vn 1 0 0
vn 0.8660254037844388 0 -0.5
vn 0.5000000000000001 0 -0.8660254037844388
vn 4.143408735633879e-16 0 -1
vn -0.4999999999999996 0 -0.8660254037844389
vn -0.8660254037844389 0 -0.4999999999999998
vn 0 -1 0
vn 0 -1 0
vn -0.4441336531612535 -0.8803336227427708 0.1666073551744591
vn 0.3592106040535494 0 0.933256525257383
vn 0.4204602865523474 0.8934961704125227 -0.15772679192348388
vn -0.1643989873053573 0 -0.9863939238321437
vn -0.9362895028582479 0 0.35122922264164674
vn -0.9659258262890683 0 0.2588190451025208
vn -0.9659258262890683 0 0.25881904510252074
vn 0 -1 0
vn 0 -1 0
vn -0.9659258262890683 0 0.2588190451025208
vn -0.9659258262890683 0 0.2588190451025208
vn -0.9659258262890683 0 0.25881904510252074
vn -0.9659258262890683 0 0.2588190451025208
vn 0.2588190451025208 0 0.9659258262890683
vn -0.6830127018922193 -0.7071067811865478 0.18301270189221902
vn -0.6830127018922192 -0.7071067811865477 0.18301270189221927
vn 0.2588190451025208 2.2204460492503136e-16 0.9659258262890683
vn 0.9659258262890683 0 -0.2588190451025208
vn 0 1 0
vn -0.2588190451025208 0 -0.9659258262890683
vn 0.2588190451025209 0 0.9659258262890683
vn 0 1 0
vn -0.6830127018922194 0.7071067811865476 0.18301270189221905
vn -0.6830127018922192 0.7071067811865477 0.1830127018922193
vn 0.2588190451025209 0 0.9659258262890683
vn -0.9659258262890683 0 0.2588190451025208
vn -0.9659258262890683 0 0.2588190451025208
vn -0.2588190451025208 0 -0.9659258262890683
vn 0.6830127018922195 -0.7071067811865474 -0.18301270189221938
vn 0 -1 0
vn 0 -1 0
vn 0.25881904510252063 -2.775557561562891e-16 0.9659258262890684
vn 0.6830127018922194 0.7071067811865474 -0.18301270189221935
vn 0 1 0
vn 0 1 0
vn 0 1 0
vn 0 1 0
vn 0 1 0
vn 0 1 0
vn 0 1 0
vn 0 1 0
vn 0 1 0
vn 0 1 0
vn 0 1 0
vn 0 1 0
vn 0 1 0
vn -1 0 -2.0717043678169412e-16
vn -1 0 -2.0717043678169412e-16
vn -0.8660254037844389 0 0.4999999999999996
vn -0.8660254037844389 0 0.4999999999999996
vn -0.8660254037844388 0 0.4999999999999996
vn 0 1 0
vn 0 1 0
vn -0.2588190451025208 0 -0.9659258262890683
vn -0.25881904510252074 0 -0.9659258262890684
vn -0.2588190451025208 0 -0.9659258262890683
vn 0.25881904510252074 -1.295260195396016e-16 0.9659258262890684
vn 0.25881904510252063 0 0.9659258262890684
vn 0 1 0
vn 0 -1 0
vn -0.2588190451025208 -7.401486830834378e-17 -0.9659258262890683
vn -0.2588190451025208 0 -0.9659258262890683
usemtl m_17300aef-7fc5-75c2-c13a-79aca645b75a
f 41/121/37 40/122/37 39/123/37
f 43/124/38 41/125/38 39/126/38
f 44/127/39 43/128/39 39/129/39
f 45/130/40 44/131/40 39/132/40
f 46/133/41 45/134/41 39/135/41
f 47/136/42 46/137/42 39/138/42
f 48/139/43 47/140/43 39/141/43
f 49/142/44 48/143/44 39/144/44
f 39/145/45 63/146/45 49/147/45
f 39/148/46 60/149/46 50/150/46
f 52/151/47 51/152/47 39/153/47
f 40/154/48 52/155/48 39/156/48
f 56/157/49 62/158/49 64/159/49 54/160/49
f 78/161/50 51/162/50 52/163/50 79/164/50
f 40/165/51 69/166/51 79/167/51 52/168/51
f 69/169/52 40/170/52 41/171/52 42/172/52
f 43/173/53 70/174/53 42/175/53 41/176/53
f 70/177/54 43/178/54 44/179/54 71/180/54
f 71/181/55 44/182/55 45/183/55 72/184/55
f 72/185/56 45/186/56 46/187/56 73/188/56
f 73/189/57 46/190/57 47/191/57 74/192/57
f 74/193/58 47/194/58 48/195/58 75/196/58
f 75/197/59 48/198/59 49/199/59 76/200/59
f 51/201/60 60/202/60 39/203/60
f 50/204/61 63/205/61 39/206/61
f 59/207/62 66/208/62 65/209/62 62/210/62
f 61/211/63 67/212/63 66/213/63 59/214/63
f 64/215/64 68/216/64 67/217/64 61/218/64
f 65/219/65 68/220/65 64/221/65 62/222/65
f 67/223/66 68/224/66 65/225/66 66/226/66
f 94/227/67 123/228/67 122/229/67 87/230/67
f 92/231/68 103/232/68 107/233/68 82/234/68
f 93/235/69 100/236/69 102/237/69 86/238/69
f 85/239/70 101/240/70 100/241/70 93/242/70
f 88/243/71 124/244/71 123/245/71 94/246/71
f 91/247/72 104/248/72 103/249/72 92/250/72
f 82/251/73 95/252/73 96/253/73 92/254/73
f 92/255/74 96/256/74 97/257/74 91/258/74
f 106/259/75 99/260/75 95/261/75 107/262/75
f 96/263/76 100/264/76 101/265/76 97/266/76
f 100/267/77 96/268/77 95/269/77 102/270/77
f 102/271/78 95/272/78 99/273/78 83/274/78
f 90/275/79 89/276/79 84/277/79 83/278/79
f 94/279/80 108/280/80 109/281/80 88/282/80
f 109/283/81 125/284/81 124/285/81 88/286/81
f 87/287/82 122/288/82 121/289/82 110/290/82
f 87/291/83 110/292/83 108/293/83 94/294/83
f 104/295/84 109/296/84 108/297/84 103/298/84
f 103/299/85 108/300/85 110/301/85 107/302/85
f 102/303/86 111/304/86 112/305/86 86/306/86
f 86/307/87 112/308/87 113/309/87 93/310/87
f 93/311/88 113/312/88 114/313/88 85/314/88
f 85/315/89 114/316/89 115/317/89 101/318/89
f 89/319/90 90/320/90 119/321/90 118/322/90
f 120/323/91 122/324/91 123/325/91 124/326/91
f 124/327/92 126/328/92 120/329/92
f 83/330/93 117/331/93 111/332/93 102/333/93
f 116/334/94 117/335/94 83/336/94 84/337/94
f 112/338/95 117/339/95 116/340/95
f 79/341/96 38/342/96 37/343/96 78/344/96
f 69/345/97 27/346/97 38/347/97 79/348/97
f 42/349/98 28/350/98 27/351/98 69/352/98
f 70/353/99 29/354/99 28/355/99 42/356/99
f 71/357/100 30/358/100 29/359/100 70/360/100
f 72/361/101 31/362/101 30/363/101 71/364/101
f 73/365/102 32/366/102 31/367/102 72/368/102
f 74/369/103 33/370/103 32/371/103 73/372/103
f 75/373/104 34/374/104 33/375/104 74/376/104
f 76/377/105 35/378/105 34/379/105 75/380/105
f 36/381/106 35/382/106 76/383/106
f 37/384/107 36/385/107 77/386/107
f 56/387/108 49/388/108 50/389/108 57/390/108
f 77/391/109 76/392/109 54/393/109 53/394/109
f 50/395/110 51/396/110 58/397/110 57/398/110
f 55/399/111 78/400/111 77/401/111 53/402/111
f 55/403/112 61/404/112 59/405/112 58/406/112
f 76/407/113 81/408/113 77/409/113 36/410/113
f 77/411/114 80/412/114 78/413/114 37/414/114
f 84/415/115 98/416/115 97/417/115 101/418/115
f 101/419/116 115/420/116 116/421/116 84/422/116
f 97/423/117 98/424/117 105/425/117 104/426/117
f 107/427/118 110/428/118 90/429/118 106/430/118
f 110/431/119 121/432/119 119/433/119 90/434/119
f 116/435/120 114/436/120 113/437/120 112/438/120
f 118/439/121 119/440/121 120/441/121 126/442/121
f 109/443/122 89/444/122 118/445/122 125/446/122
f 105/447/123 89/448/123 109/449/123 104/450/123